<mxfile host="app.diagrams.net" modified="2023-10-13T16:00:38.769Z" agent="Mozilla/5.0 (Windows NT 10.0; Win64; x64) AppleWebKit/537.36 (KHTML, like Gecko) Chrome/118.0.0.0 Safari/537.36" etag="2sqIAOXHBabovjvgAtAc" version="22.0.4" type="github">
  <diagram name="Page-1" id="wYcRcjKQEGtaWY2RKBrf">
    <mxGraphModel dx="2074" dy="768" grid="1" gridSize="10" guides="1" tooltips="1" connect="1" arrows="1" fold="1" page="1" pageScale="1" pageWidth="850" pageHeight="1100" math="0" shadow="0">
      <root>
        <mxCell id="0" />
        <mxCell id="1" parent="0" />
        <mxCell id="PI1ROOFq2yHGhIw4-mz2-1" value="" style="shape=image;verticalLabelPosition=bottom;verticalAlign=top;imageAspect=0;aspect=fixed;image=https://digitalmarketplace-sapcpprd.s3.eu-central-1.amazonaws.com/CnPcUZ99XyAwb5PgIYse7o8Ws-ypG3GF-gNKbPOobuj3uh9iqcga326Kq7u3U3Yp.svg" vertex="1" parent="1">
          <mxGeometry x="260" y="240" width="56" height="56" as="geometry" />
        </mxCell>
      </root>
    </mxGraphModel>
  </diagram>
</mxfile>
